HIERARCHY
ROOT Hips
{
 OFFSET 0.000000 0.000000 0.000000
 CHANNELS 6 Xposition Yposition Zposition Yrotation Xrotation Zrotation
 JOINT Chest
 {
  OFFSET 0.000000 9.585900 0.002600
  CHANNELS 3 Yrotation Xrotation Zrotation
  JOINT Chest2
  {
   OFFSET 0.000000 9.601200 -0.005300
   CHANNELS 3 Yrotation Xrotation Zrotation
   JOINT Chest3
   {
    OFFSET 0.000000 9.561800 0.000000
    CHANNELS 3 Yrotation Xrotation Zrotation
    JOINT Chest4
    {
     OFFSET 0.000000 9.552100 0.000000
     CHANNELS 3 Yrotation Xrotation Zrotation
     JOINT Neck
     {
      OFFSET 0.000000 14.453000 0.000000
      CHANNELS 3 Yrotation Xrotation Zrotation
      JOINT Head
      {
       OFFSET 0.000000 8.936500 -0.011300
       CHANNELS 3 Yrotation Xrotation Zrotation
       End Site
       {
        OFFSET 0.000000 17.073600 -0.006000
       }
      }
     }
     JOINT RightCollar
     {
      OFFSET -2.921100 9.558500 0.000000
      CHANNELS 3 Yrotation Xrotation Zrotation
      JOINT RightShoulder
      {
       OFFSET -13.519700 0.000000 0.000000
       CHANNELS 3 Yrotation Xrotation Zrotation
       JOINT RightElbow
       {
        OFFSET 0.000000 -29.696600 0.000000
        CHANNELS 3 Yrotation Xrotation Zrotation
        JOINT RightWrist
        {
         OFFSET 0.000000 -24.004700 0.000000
         CHANNELS 3 Yrotation Xrotation Zrotation
         End Site
         {
          OFFSET 0.000000 -17.728500 0.000000
         }
        }
       }
      }
     }
     JOINT LeftCollar
     {
      OFFSET 2.921100 9.558500 0.000000
      CHANNELS 3 Yrotation Xrotation Zrotation
      JOINT LeftShoulder
      {
       OFFSET 13.519700 0.000000 0.000000
       CHANNELS 3 Yrotation Xrotation Zrotation
       JOINT LeftElbow
       {
        OFFSET 0.000000 -29.696600 0.000000
        CHANNELS 3 Yrotation Xrotation Zrotation
        JOINT LeftWrist
        {
         OFFSET 0.000000 -24.004700 0.000000
         CHANNELS 3 Yrotation Xrotation Zrotation
         End Site
         {
          OFFSET 0.000000 -17.728500 0.000000
         }
        }
       }
      }
     }
    }
   }
  }
 }
 JOINT RightHip
 {
  OFFSET -7.771700 -0.012900 -0.001300
  CHANNELS 3 Yrotation Xrotation Zrotation
  JOINT RightKnee
  {
   OFFSET 0.000000 -40.869800 0.001200
   CHANNELS 3 Yrotation Xrotation Zrotation
   JOINT RightAnkle
   {
    OFFSET 0.000000 -39.717900 0.002100
    CHANNELS 3 Yrotation Xrotation Zrotation
    JOINT RightToe
    {
     OFFSET 0.000000 -4.965400 11.033500
     CHANNELS 3 Yrotation Xrotation Zrotation
     End Site
     {
      OFFSET 0.000000 -1.423100 5.872300
     }
    }
   }
  }
 }
 JOINT LeftHip
 {
  OFFSET 7.771700 -0.012900 -0.001300
  CHANNELS 3 Yrotation Xrotation Zrotation
  JOINT LeftKnee
  {
   OFFSET 0.000000 -40.869800 0.001200
   CHANNELS 3 Yrotation Xrotation Zrotation
   JOINT LeftAnkle
   {
    OFFSET 0.000000 -39.717900 0.002100
    CHANNELS 3 Yrotation Xrotation Zrotation
    JOINT LeftToe
    {
     OFFSET 0.000000 -4.965400 11.033500
     CHANNELS 3 Yrotation Xrotation Zrotation
     End Site
     {
      OFFSET 0.000000 -1.423100 5.872300
     }
    }
   }
  }
 }
}
MOTION
Frames: 16
Frame Time: 0.008333
0.000000 85.388000 0.000000 0.000000 -5.767877 0.000000 0.000000 11.653817 0.000000 0.000000 -5.885947 0.000000 0.000000 -0.000000 0.000000 0.000000 -0.000000 0.000000 0.000000 12.528835 0.000000 0.000000 0.711642 0.000000 0.000000 -0.000000 0.000000 0.000000 0.000000 -90.000000 0.000000 -2.309062 0.000000 0.000000 2.309062 0.000000 0.000000 -0.000000 0.000000 0.000000 -0.000000 90.000000 0.000000 -2.309062 0.000000 0.000000 2.309062 0.000000 0.000000 8.520406 0.000000 0.000000 1.905762 0.000000 -0.000000 -4.658285 0.000000 0.000000 -0.000000 0.000000 0.000000 8.520406 0.000000 0.000000 1.905762 0.000000 -0.000000 -4.658285 0.000000 0.000000 -0.000000 0.000000
-2.934242 55.200559 23.510310 178.797705 -17.775281 -1.429570 0.847891 16.247808 0.731969 0.073490 1.621778 0.081812 0.102775 2.710513 0.135607 0.771084 14.402085 0.816789 0.762954 11.120871 -5.310356 2.062761 -13.886197 -5.862849 1.623580 0.611520 2.038393 2.446786 -7.523763 -8.798103 -79.048578 -60.040827 111.603863 -13.104260 -2.056365 -2.654118 -6.345786 -2.296960 2.210185 0.266857 -10.063351 7.229412 53.507600 -54.464049 -97.146393 7.477326 -12.633094 11.569084 0.176703 -57.261495 13.269512 -94.194308 86.145248 -97.857331 -11.024998 -21.715270 16.255999 0.105692 -0.131906 0.035931 12.059429 -54.053578 -4.822588 111.284127 76.646254 109.023523 -8.036922 -23.720276 1.538159 0.075739 0.216399 0.032315
-2.934847 55.201745 23.508010 178.795301 -17.773949 -1.429484 0.829261 16.249000 0.725986 0.071992 1.620200 0.081264 0.108069 2.702708 0.131617 0.749022 14.401650 0.815111 0.770725 11.170641 -5.249455 2.098621 -13.871905 -5.864418 1.653318 0.627565 2.040334 2.350845 -7.541925 -8.795922 -79.258238 -60.113002 111.682827 -13.093475 -2.015749 -2.620780 -6.316947 -2.273402 2.191235 0.421332 -9.977595 7.133225 53.949615 -55.166807 -97.102605 7.151472 -11.820601 11.263664 0.176090 -57.261360 13.271168 -94.183139 86.136582 -97.845766 -10.996029 -21.717128 16.253485 0.159189 -0.128153 0.035657 12.057404 -54.053202 -4.820863 111.288594 76.644560 109.029466 -8.042245 -23.721024 1.535583 0.083099 0.214858 0.034003
-2.934050 55.203314 23.504945 178.800563 -17.775819 -1.441248 0.819165 16.249144 0.730343 0.070191 1.617923 0.080663 0.101788 2.696394 0.129598 0.706547 14.376720 0.798876 0.821166 11.226144 -5.204869 2.112830 -13.862251 -5.866600 1.689595 0.675711 2.057493 2.255016 -7.560606 -8.793926 -79.497146 -60.195510 111.783282 -13.079414 -1.973481 -2.591534 -6.251465 -2.214098 2.191311 0.574762 -9.911450 7.035414 54.322563 -55.781925 -97.026154 6.872695 -11.037019 10.960878 0.154432 -57.254264 13.279322 -94.180615 86.143025 -97.852295 -10.876289 -21.729952 16.230849 0.084494 -0.145606 0.026496 12.022573 -54.051688 -4.802671 111.310417 76.648958 109.052088 -8.020990 -23.729220 1.526503 0.065656 0.222063 0.030920
-2.935131 55.204335 23.503674 178.800795 -17.765656 -1.441709 0.806076 16.233914 0.721315 0.068871 1.615761 0.080244 0.099087 2.691404 0.128194 0.695753 14.367698 0.793725 0.843229 11.268673 -5.157608 2.125647 -13.852381 -5.871638 1.686731 0.722025 2.075351 2.156023 -7.590372 -8.791310 -79.744791 -60.283123 111.891247 -13.063559 -1.943501 -2.573685 -6.204724 -2.160069 2.188892 0.739492 -9.868355 6.952354 54.608400 -56.275769 -96.917224 6.657504 -10.298281 10.667312 0.155195 -57.262555 13.282686 -94.147325 86.139362 -97.813804 -10.899251 -21.729026 16.242947 0.084846 -0.140365 0.020030 12.016690 -54.062384 -4.805125 111.323877 76.648913 109.065035 -8.016837 -23.726784 1.525524 0.061809 0.219690 0.028546
-2.932758 55.205930 23.501018 178.801633 -17.765234 -1.463916 0.795530 16.228663 0.733189 0.060399 1.604460 0.074604 0.116049 2.700751 0.135880 0.683428 14.350669 0.782371 0.862551 11.303375 -5.124908 2.124601 -13.743125 -5.714919 1.692641 0.755871 2.089837 2.026322 -7.607258 -8.775409 -79.986813 -60.367462 111.998920 -13.053421 -1.929865 -2.568872 -6.159264 -2.106944 2.190845 0.921549 -9.834104 6.883627 54.808748 -56.622154 -96.784457 6.496224 -9.607056 10.407382 0.120114 -57.257504 13.322040 -94.100116 86.153498 -97.764332 -10.889836 -21.756130 16.244518 0.050311 -0.120273 0.010199 11.977911 -54.066603 -4.768471 111.326354 76.647424 109.065365 -7.991260 -23.690742 1.524834 0.040106 0.183777 0.017976
-2.933951 55.207327 23.498474 178.804133 -17.764576 -1.466154 0.784618 16.219007 0.725872 0.066700 1.610743 0.079201 0.112926 2.695949 0.133666 0.682419 14.345804 0.777656 0.869637 11.327236 -5.094526 2.119429 -13.653057 -5.586126 1.685476 0.775986 2.094449 1.886389 -7.621754 -8.750832 -80.223820 -60.439937 112.106575 -13.053302 -1.929636 -2.577273 -6.117464 -2.065045 2.188121 1.119664 -9.808988 6.829045 54.933838 -56.820255 -96.643497 6.385085 -8.957868 10.196621 0.113075 -57.252131 13.322501 -94.076858 86.170986 -97.741801 -10.874268 -21.764747 16.238853 -0.012069 -0.124994 0.004591 11.966111 -54.066352 -4.767336 111.327618 76.644535 109.063864 -7.981204 -23.691004 1.523457 0.033928 0.183912 0.015265
-2.935645 55.208603 23.495881 178.805550 -17.765593 -1.465501 0.779758 16.208497 0.714622 0.066573 1.608447 0.078147 0.112622 2.692270 0.132011 0.684843 14.350199 0.779402 0.883640 11.406075 -4.978338 2.121092 -13.617213 -5.551685 1.680052 0.793159 2.098205 1.736208 -7.632213 -8.722434 -80.452012 -60.497342 112.214290 -13.063297 -1.947211 -2.606332 -6.074885 -2.023579 2.184190 1.341272 -9.788059 6.785859 54.993935 -56.886972 -96.508590 6.331466 -8.344390 10.029985 0.105809 -57.245414 13.324949 -94.026704 86.175365 -97.692270 -10.874806 -21.768401 16.239427 0.092561 -0.111879 0.010028 11.960011 -54.064654 -4.771347 111.331412 76.641796 109.065801 -7.970032 -23.687456 1.521166 0.028671 0.179639 0.013368
-2.937268 55.209527 23.493801 178.805832 -17.764805 -1.464931 0.780307 16.179100 0.688805 0.066380 1.621683 0.091573 0.113656 2.667534 0.112756 0.689308 14.333740 0.761146 0.903692 11.503049 -4.865253 2.110671 -13.544787 -5.451439 1.679800 0.848952 2.147605 1.577186 -7.638837 -8.699860 -80.666733 -60.539290 112.318698 -13.084603 -1.986197 -2.658154 -6.055207 -1.949189 2.221723 1.608944 -9.756828 6.743118 54.990617 -56.842133 -96.379323 6.323937 -7.782377 9.910504 0.094030 -57.242530 13.332030 -93.991619 86.176153 -97.658758 -10.876937 -21.765234 16.240305 0.058554 -0.116695 0.010550 11.958272 -54.064877 -4.774514 111.331278 76.641750 109.065144 -7.965427 -23.684137 1.522327 0.028262 0.176406 0.010786
-2.938285 55.210093 23.492120 178.806375 -17.762647 -1.467502 0.781649 16.169192 0.684217 0.069358 1.598327 0.070899 0.118226 2.677650 0.120459 0.697633 14.324891 0.748607 0.911475 11.580220 -4.763400 2.092394 -13.465273 -5.336729 1.660290 0.874919 2.172355 1.424352 -7.641391 -8.670152 -80.872231 -60.566291 112.413322 -13.113259 -2.042317 -2.722729 -6.046579 -1.903555 2.247611 1.889338 -9.729884 6.708463 54.940971 -56.711140 -96.254708 6.350694 -7.288507 9.838137 0.077952 -57.241947 13.337939 -93.971210 86.181101 -97.642098 -10.827785 -21.763687 16.225187 0.033895 -0.128016 0.008908 11.953344 -54.067076 -4.774192 111.324780 76.639216 109.058372 -7.963895 -23.683002 1.523906 0.023191 0.176932 0.008664
-2.938640 55.210614 23.489737 178.801901 -17.765700 -1.471334 0.790852 16.164207 0.682684 0.068091 1.601624 0.074443 0.129300 2.662038 0.101657 0.707702 14.315894 0.734472 0.909873 11.634132 -4.686333 2.066076 -13.352865 -5.173182 1.636967 0.896174 2.197172 1.272490 -7.640084 -8.636208 -81.071643 -60.583012 112.495784 -13.142244 -2.110288 -2.791609 -5.977148 -1.841178 2.248779 2.096018 -9.727260 6.710409 54.868912 -56.519681 -96.138992 6.405664 -6.863042 9.801527 0.067410 -57.235880 13.347571 -93.925007 86.185527 -97.596764 -10.793709 -21.763229 16.211997 0.073808 -0.127776 0.013328 11.942930 -54.063476 -4.763648 111.333048 76.634591 109.065858 -7.958971 -23.690018 1.521963 0.020139 0.179812 0.008033
-2.939468 55.210581 23.488044 178.802996 -17.764271 -1.472688 0.802240 16.149922 0.667889 0.069482 1.599292 0.072719 0.124691 2.667060 0.110999 0.712694 14.311346 0.727103 0.918535 11.722600 -4.573033 2.038249 -13.274622 -5.054872 1.625169 0.882744 2.173911 1.120364 -7.618486 -8.576729 -81.270634 -60.594623 112.568592 -13.168877 -2.185072 -2.861258 -5.949465 -1.818917 2.248287 2.339809 -9.700757 6.701959 54.789610 -56.290940 -96.030826 6.475865 -6.502760 9.786207 0.061119 -57.236267 13.349937 -93.909696 86.188373 -97.581823 -10.777246 -21.756042 16.207590 0.027458 -0.132069 0.014327 11.935738 -54.063506 -4.762594 111.333833 76.637028 109.066595 -7.952671 -23.694160 1.522180 0.019425 0.183472 0.006384
-2.941965 55.210442 23.485490 178.800806 -17.767688 -1.461386 0.814670 16.138574 0.642182 0.070515 1.596844 0.070773 0.119410 2.673541 0.119822 0.717363 14.306721 0.719171 0.926204 11.818693 -4.452155 2.010921 -13.190609 -4.933467 1.617274 0.888685 2.185761 0.982436 -7.615030 -8.556345 -81.473632 -60.603836 112.634760 -13.193890 -2.259909 -2.930882 -5.942528 -1.800310 2.259126 2.581891 -9.670090 6.686994 54.722598 -56.050922 -95.934753 6.548079 -6.205863 9.782803 0.079615 -57.234256 13.333882 -93.918181 86.184799 -97.581826 -10.828042 -21.745021 16.217227 0.063567 -0.129759 0.015731 11.944832 -54.055472 -4.776284 111.351579 76.637944 109.078606 -7.950965 -23.700236 1.528911 0.019931 0.184499 0.003854
-2.943533 55.210147 23.482569 178.805502 -17.772818 -1.456223 0.820590 16.128999 0.619329 0.081131 1.581549 0.054753 0.111577 2.682386 0.131098 0.722907 14.297156 0.703466 0.932431 11.921849 -4.320549 1.977804 -13.085423 -4.788737 1.607268 0.908073 2.220027 0.856854 -7.611349 -8.541035 -81.681171 -60.615636 112.700678 -13.219469 -2.328997 -2.998494 -5.940698 -1.765576 2.290951 2.795468 -9.641003 6.677360 54.680863 -55.825354 -95.858478 6.612882 -5.977464 9.796865 0.089668 -57.230959 13.317487 -93.972373 86.175231 -97.628063 -10.830049 -21.740841 16.216809 0.060252 -0.130945 0.017416 11.944028 -54.047162 -4.784342 111.347378 76.634110 109.073792 -7.954355 -23.701305 1.530679 0.018675 0.184325 0.002725
-2.943687 55.209553 23.479891 178.813208 -17.775969 -1.459279 0.831569 16.110985 0.599555 0.067535 1.598413 0.075627 0.122888 2.665720 0.114032 0.747249 14.265482 0.664788 0.919590 12.054612 -4.158082 1.939044 -12.972187 -4.639477 1.575385 0.938601 2.266966 0.741921 -7.600946 -8.519411 -81.888929 -60.633123 112.765080 -13.246639 -2.392873 -3.060743 -5.939316 -1.708752 2.334969 2.951206 -9.615797 6.686388 54.672529 -55.634621 -95.803052 6.665630 -5.817620 9.829107 0.086924 -57.229695 13.306580 -94.098562 86.172812 -97.751480 -10.766292 -21.745909 16.202741 0.076955 -0.135054 0.019375 11.931573 -54.045846 -4.780351 111.358590 76.631550 109.084181 -7.955257 -23.699825 1.532538 0.016622 0.182641 0.001781
-2.943453 55.208443 23.478237 178.811762 -17.772575 -1.461200 0.846183 16.093434 0.583655 0.067501 1.596646 0.079452 0.136572 2.644154 0.088797 0.738310 14.294549 0.702623 0.917490 12.154992 -4.055295 1.895465 -12.848925 -4.485571 1.563009 0.899205 2.216895 0.641943 -7.567718 -8.471659 -82.088927 -60.653245 112.823146 -13.270163 -2.450931 -3.117299 -5.918472 -1.704923 2.327962 3.084483 -9.591853 6.700405 54.704882 -55.492105 -95.765775 6.703567 -5.718831 9.865437 0.088886 -57.235113 13.309064 -94.139184 86.172713 -97.787587 -10.780176 -21.743531 16.207300 0.065929 -0.129011 0.020866 11.934954 -54.051349 -4.777101 111.371010 76.634452 109.103759 -7.963960 -23.698635 1.528942 0.028229 0.181308 0.006360
